<svg width="40" height="36" viewBox="0 0 40 36" fill="none" xmlns="http://www.w3.org/2000/svg">
<path d="M26.7041 22.3108L23.6826 21.3541C22.6484 20.6204 21.7106 20.6721 21.3221 20.585L20.469 19.8417C20.0586 19.4842 19.5328 19.3412 19.0292 19.4073V17.4837C20.6003 16.372 21.6872 14.6119 21.8823 12.5824C22.6241 12.4645 23.1929 11.8204 23.1929 11.0458C23.1929 9.76926 23.1929 6.08454 23.1929 4.90475C23.1929 3.56402 22.1022 2.4733 20.7616 2.4733H20.6993C20.6762 2.4733 20.6573 2.45451 20.6573 2.43136C20.6573 1.09071 19.5666 0 18.226 0H11.8546C9.18713 0 7.01689 2.17016 7.01689 4.83764V11.0458C7.01689 11.8204 7.58574 12.4645 8.32756 12.5824C8.52259 14.6119 9.60957 16.372 11.1806 17.4837V19.4069C10.6778 19.3416 10.153 19.4849 9.74332 19.8418L8.87955 20.5944C8.71373 20.636 8.12119 20.6789 7.41595 21.0736L3.50817 22.3108C1.40978 22.9752 0 24.9003 0 27.1013V33.786C0 35.0068 0.993236 36 2.21404 36H27.9982C29.219 36 30.2122 35.0068 30.2122 33.786V27.1013C30.2122 24.9003 28.8025 22.9752 26.7041 22.3108ZM19.7037 20.7203L20.2792 21.2216C17.7934 24.4603 17.8391 24.7497 17.3824 24.5599L15.9835 23.3709L18.8058 20.7428C18.8141 20.7359 18.8224 20.729 18.8306 20.7218C18.8327 20.7199 18.8346 20.7178 18.8367 20.7158C19.0865 20.5029 19.4539 20.5026 19.7037 20.7203ZM20.3542 23.0635C19.9686 25.2721 18.8627 27.8398 17.6857 30.1356L16.6929 26.3848L17.2492 25.7283C17.8623 25.8443 18.4603 25.5891 18.8102 25.1226L20.3542 23.0635ZM15.1061 24.1598L16.2285 25.1306L15.782 25.6575H14.4273L13.9742 25.1389L15.1061 24.1598ZM15.1061 22.5959L12.3456 20.0253V18.148C13.1913 18.5247 14.1256 18.7341 15.1048 18.7341C16.0841 18.7341 17.0184 18.5247 17.8641 18.1481V20.0275L15.1061 22.5959ZM8.18193 4.83772C8.18193 2.81264 9.82945 1.16512 11.8546 1.16512H18.226C18.9242 1.16512 19.4923 1.73319 19.4923 2.43152C19.4923 3.09699 20.0337 3.63842 20.6993 3.63842H20.7616C21.4598 3.63842 22.0279 4.2065 22.0279 4.90482V8.35963H21.3329C20.9447 8.35963 20.6289 8.04383 20.6289 7.65564V6.95157C20.6289 5.63406 19.342 4.6917 18.0793 5.10901C16.1619 5.74264 14.0501 5.7428 12.1397 5.11173C12.1365 5.11065 12.1334 5.10964 12.1303 5.10863C10.8732 4.69325 9.58099 5.62754 9.58099 6.95133V7.65564C9.58099 8.04383 9.26518 8.35963 8.87699 8.35963H8.18193V4.83772ZM9.47241 12.2848C9.44242 11.8092 9.04724 11.4367 8.57276 11.4367C8.35723 11.4367 8.18193 11.2614 8.18193 11.0459V9.52468H8.87699C9.90759 9.52468 10.746 8.68623 10.746 7.65564V6.95133C10.746 6.41223 11.275 6.05332 11.758 6.21254C11.7611 6.21363 11.7642 6.21464 11.7673 6.21565C13.9205 6.92695 16.2919 6.92671 18.4449 6.21518C18.9484 6.04905 19.4639 6.42341 19.4639 6.95149V7.65556C19.4639 8.68623 20.3023 9.5246 21.3329 9.5246H22.0279V11.0458C22.0279 11.2613 21.8526 11.4367 21.6371 11.4367C21.1625 11.4367 20.7673 11.8092 20.7374 12.2847C20.5505 15.2479 18.0765 17.5691 15.1049 17.5691C12.1334 17.5691 9.65936 15.248 9.47241 12.2848ZM10.5086 20.7203C10.7578 20.5031 11.1242 20.503 11.3739 20.7144C11.3765 20.7168 11.3788 20.7194 11.3814 20.7217C11.3887 20.7279 11.3964 20.7343 11.4055 20.7418L14.2287 23.3708L12.8154 24.5654C12.6486 24.6274 12.4506 24.5789 12.3342 24.4238L9.93314 21.2217L10.5086 20.7203ZM11.4021 25.1226C11.748 25.5838 12.3381 25.8395 12.945 25.732L13.5302 26.4015L12.7478 29.9208C11.5229 27.7126 10.3484 25.2464 9.90324 23.1238L11.4021 25.1226ZM13.9514 34.835C12.7038 33.9016 11.6033 32.9989 10.6792 32.1504C10.4423 31.9328 10.0738 31.9484 9.85617 32.1855C9.63862 32.4225 9.65431 32.7909 9.89128 33.0086C10.5309 33.5959 11.251 34.2072 12.042 34.835H5.99398V31.6005C5.99398 31.2787 5.73317 31.018 5.41146 31.018C5.08975 31.018 4.82894 31.2787 4.82894 31.6005V34.835H2.21404C1.63564 34.835 1.16504 34.3644 1.16504 33.786V27.1013C1.16504 25.4106 2.24799 23.9319 3.85978 23.4216L5.82971 22.7979C5.62311 23.2427 5.51795 23.6737 5.51795 24.0816C5.51795 25.0283 6.6666 25.9182 7.21277 26.309C6.6593 26.9629 6.42209 27.7042 6.54365 28.4118C6.67211 29.16 7.12927 30.0031 7.941 30.9895C8.14542 31.238 8.51249 31.2737 8.76095 31.0691C9.00934 30.8647 9.04499 30.4976 8.84056 30.2491C8.00577 29.2348 7.75513 28.5828 7.69183 28.2146C7.60648 27.7176 7.90931 27.2664 8.17843 26.9754C8.37618 26.7615 8.47148 26.4694 8.44002 26.174C8.40888 25.8813 8.25641 25.6189 8.02177 25.4543C7.0464 24.7694 6.68299 24.2489 6.68299 24.0816C6.68299 23.8012 6.77782 23.4811 6.96493 23.1301C7.31125 22.4804 7.90201 22.0394 8.55932 21.8515C8.75715 25.8549 12.0893 31.2293 14.1294 34.5199C14.1967 34.6284 14.2617 34.7333 14.3246 34.835H13.9514V34.835ZM15.1196 33.906C14.6798 33.1965 14.1549 32.3498 13.6077 31.4216L14.63 26.8227H15.6036L16.8812 31.6491C16.336 32.6412 15.8075 33.5434 15.3598 34.2938C15.2828 34.1693 15.203 34.0406 15.1196 33.906ZM16.3934 34.835C18.4577 31.3706 21.514 25.8384 21.6579 21.8086C21.6792 21.8169 23.2367 21.9115 23.8672 23.341C23.9859 23.6103 24.0461 23.8593 24.0461 24.0815C24.0461 24.2486 23.6826 24.7692 22.7074 25.4541C22.4728 25.6188 22.3203 25.8812 22.2891 26.1739C22.2576 26.4693 22.3529 26.7614 22.5507 26.9752C22.8198 27.2662 23.1226 27.7175 23.0374 28.2144C22.7941 29.6304 20.515 32.0389 16.7774 34.8349H16.3934V34.835ZM29.0472 33.786C29.0472 34.3644 28.5766 34.835 27.9982 34.835H25.3808V31.6005C25.3808 31.2787 25.12 31.018 24.7983 31.018C24.4766 31.018 24.2158 31.2787 24.2158 31.6005V34.835H18.6861C20.4373 33.4441 23.8082 30.6098 24.1856 28.4118C24.3072 27.7042 24.0701 26.963 23.5165 26.309C24.0626 25.9183 25.2113 25.0284 25.2113 24.0816C25.2113 23.7325 25.1336 23.3649 24.9817 22.9876L26.3525 23.4216C27.9643 23.9319 29.0473 25.4106 29.0473 27.1013V33.786H29.0472Z" fill="#323130"/>
<path d="M39.1328 6.93175L34.9969 2.79586C34.5878 2.3867 34.0438 2.16138 33.4651 2.16138H25.3208C24.9991 2.16138 24.7383 2.42211 24.7383 2.7439C24.7383 3.06568 24.9991 3.32642 25.3208 3.32642H33.2862V7.07824C33.2862 7.94076 33.9879 8.64258 34.8505 8.64258H38.6023V27.7449C38.6023 28.2969 38.1532 28.7461 37.6011 28.7461H32.3536C32.0319 28.7461 31.7711 29.0068 31.7711 29.3286C31.7711 29.6504 32.0319 29.9111 32.3536 29.9111H37.6011C38.7955 29.9111 39.7673 28.9393 39.7673 27.7449V8.46355C39.7673 7.88499 39.542 7.34099 39.1328 6.93175ZM34.8504 7.47746C34.6303 7.47746 34.4511 7.29835 34.4511 7.07816V3.89783L38.0309 7.47746H34.8504Z" fill="#323130"/>
<rect x="27" y="13" width="9" height="1" rx="0.5" fill="#323130"/>
<rect x="27" y="16" width="9" height="1" rx="0.5" fill="#323130"/>
<rect x="27" y="19" width="9" height="1" rx="0.5" fill="#323130"/>
</svg>
