<svg width="51" height="50" viewBox="0 0 51 50" fill="none" xmlns="http://www.w3.org/2000/svg">
<mask id="path-1-inside-1_329_875" fill="white">
<path d="M46.9394 43.4016C47.8305 42.65 48.391 41.5355 48.391 40.3226V33.8709C48.391 31.2403 47.1192 28.9081 45.1652 27.4347V9.67744H32.262V3.22581H29.0362V1.61291H27.4232V3.22581H25.8104V0H24.1974V3.22581H22.5846V1.61291H20.9716V3.22581H17.7459V9.67744H4.84261V27.4347C2.88858 28.9081 1.61681 31.2403 1.61681 33.8709V44.7194C0.6031 45.9419 0.00390625 47.5056 0.00390625 49.1936V50H50.0023L50.0039 49.1944C50.0079 46.8177 48.8184 44.675 46.9394 43.4016ZM46.7781 33.8709V40.3226C46.7781 41.3145 46.1596 42.2 45.2531 42.5629C45.0757 42.5033 44.895 42.4484 44.7112 42.4024L43.4112 42.0774L43.2249 41.3339C44.3829 40.6242 45.1652 39.3581 45.1652 37.9032V33.0645H44.3587C43.1144 33.0645 41.9587 32.4459 41.2684 31.4105L41.1329 31.2072V29.0322H39.5201V31.2072L39.3846 31.4105C38.6942 32.4459 37.5386 33.0645 36.2942 33.0645H35.4877V37.9032C35.4877 39.3581 36.2701 40.6242 37.4281 41.3331L37.2418 42.0758L35.9507 42.3968C35.7627 42.4436 35.5781 42.4992 35.3958 42.5605C34.4926 42.1976 33.8749 41.3129 33.8749 40.3226V33.8709C33.8749 30.3137 36.7692 27.4194 40.3265 27.4194C43.8837 27.4194 46.7781 30.3137 46.7781 33.8709ZM31.4555 32.0597C31.4555 32.2678 31.4232 32.4702 31.3958 32.6742C30.9329 32.4169 30.4087 32.2581 29.8426 32.2581H29.0362H28.8974C27.6418 32.2581 26.4612 31.7694 25.5741 30.8814L25.0039 30.3105L24.4337 30.8814C23.5458 31.7694 22.366 32.2581 21.1104 32.2581H20.9716H20.1652C19.5991 32.2581 19.0749 32.4169 18.612 32.6742C18.5846 32.4702 18.5523 32.2678 18.5523 32.0597C18.5523 29.5008 20.6337 27.4194 23.1926 27.4194H26.8152C29.3741 27.4194 31.4555 29.5008 31.4555 32.0597ZM32.666 44.2774C31.7886 43.3879 30.6701 42.7242 29.3886 42.4032L28.0886 42.0783L27.9023 41.3347C28.841 40.7597 29.5346 39.8234 29.7612 38.7105H29.8426C30.8112 38.7105 31.6701 38.2734 32.262 37.5959V40.3226C32.262 41.5347 32.8224 42.6484 33.7127 43.4008C33.3362 43.6564 32.987 43.9516 32.666 44.2774ZM17.7459 43.8959V37.5952C18.3377 38.2726 19.1966 38.7097 20.1652 38.7097H20.2466C20.4732 39.8226 21.1668 40.7589 22.1055 41.3331L21.9192 42.0758L20.6281 42.3968C19.5329 42.6702 18.5563 43.1952 17.7459 43.8959ZM20.1652 37.0968C19.2757 37.0968 18.5523 36.3734 18.5523 35.4839C18.5523 34.5944 19.2757 33.8709 20.1652 33.8709V37.0968ZM25.8104 40.3226H24.1974C22.8636 40.3226 21.7781 39.2371 21.7781 37.9032V33.8363C22.9604 33.7129 24.0716 33.2621 25.0039 32.5283C25.9362 33.2621 27.0474 33.7121 28.2297 33.8363V37.9032C28.2297 39.2371 27.1442 40.3226 25.8104 40.3226ZM23.6313 41.8783C23.8184 41.9048 24.0039 41.9355 24.1974 41.9355H25.8104C26.0039 41.9355 26.1894 41.9048 26.3765 41.8783L26.5482 42.5645L25.0039 44.6234L23.4596 42.5645L23.6313 41.8783ZM29.8426 33.8709C30.7321 33.8709 31.4555 34.5944 31.4555 35.4839C31.4555 36.3734 30.7321 37.0968 29.8426 37.0968V33.8709ZM21.0184 43.9629L22.2604 43.6541L25.0039 47.3121L27.7466 43.6548L28.9958 43.9677C31.1321 44.5024 32.6854 46.2637 33.0015 48.3871H17.0063C17.3216 46.2589 18.8781 44.4944 21.0184 43.9629ZM33.6749 45.5758C34.3877 44.7936 35.3079 44.2194 36.3402 43.9621L37.1208 43.7677C37.1958 45.4347 37.7096 47.0217 38.6241 48.3863H34.6305C34.5152 47.3734 34.1837 46.4194 33.6749 45.5758ZM40.3265 32.8314C41.1563 33.7944 42.2991 34.4258 43.5523 34.6161V37.9032C43.5523 39.2371 42.4668 40.3226 41.1329 40.3226H39.5201C38.1862 40.3226 37.1007 39.2371 37.1007 37.9032V34.6161C38.3539 34.4258 39.4966 33.7944 40.3265 32.8314ZM39.5201 41.9355H41.1329C41.3265 41.9355 41.5119 41.9048 41.6991 41.8783L41.9394 42.8395V43.3524C41.9394 43.4186 41.9313 43.4822 41.9297 43.5484H38.7232C38.7216 43.4831 38.7136 43.4186 38.7136 43.3524V42.8403L38.9539 41.8783C39.141 41.9048 39.3265 41.9355 39.5201 41.9355ZM38.9426 45.1613H41.7104C41.4563 46.1855 40.9902 47.1428 40.3265 47.9774C39.6627 47.1428 39.1966 46.1855 38.9426 45.1613ZM43.5523 26.4847C42.5636 26.0508 41.4732 25.8064 40.3265 25.8064C37.0063 25.8064 34.1499 27.825 32.9144 30.6976C32.4547 28.6371 30.9757 26.9613 29.0362 26.2209V11.2903H43.5523V26.4847ZM27.4232 9.67744V25.8371C27.2232 25.8178 27.0208 25.8064 26.8152 25.8064H23.1926C21.7474 25.8064 20.4192 26.304 19.3587 27.1306V8.0645H30.6491V9.67744H27.4232ZM30.6491 4.83871V6.45163H19.3587V4.83871H30.6491ZM6.45549 11.2903H17.7459V28.9984C17.4499 29.5234 17.2281 30.0936 17.0934 30.6976C15.8579 27.8242 13.0015 25.8064 9.68131 25.8064C8.53456 25.8064 7.44424 26.0508 6.45549 26.4847V11.2903ZM9.68131 27.4194C13.2386 27.4194 16.1329 30.3137 16.1329 33.8709V43.3008C15.4991 42.8952 14.8031 42.5871 14.066 42.4024L12.766 42.0774L12.5797 41.3339C13.7377 40.6242 14.5201 39.3581 14.5201 37.9032V33.0645H11.7459C10.7232 33.0645 9.77487 32.5564 9.20793 31.7056C8.76437 31.0419 8.02324 30.6452 7.22487 30.6452C5.91116 30.6452 4.84261 31.7129 4.84261 33.0258V37.9032C4.84261 39.3581 5.62488 40.6242 6.78293 41.3331L6.59662 42.0758L5.30552 42.3968C4.5531 42.5847 3.85633 42.8919 3.22971 43.2911V33.8709C3.22971 30.3137 6.12406 27.4194 9.68131 27.4194ZM10.4877 40.3226H8.87487C7.54099 40.3226 6.45549 39.2371 6.45549 37.9032V33.0258C6.45549 32.6024 6.80068 32.2581 7.22487 32.2581C7.48212 32.2581 7.72162 32.3863 7.86518 32.6008C8.73131 33.9008 10.1821 34.6774 11.7459 34.6774H12.9071V37.9032C12.9071 39.2371 11.8216 40.3226 10.4877 40.3226ZM8.30874 41.8783C8.49587 41.9048 8.68131 41.9355 8.87487 41.9355H10.4877C10.6813 41.9355 10.8668 41.9048 11.0539 41.8783L11.2877 42.8113C11.2499 43.6686 10.5466 44.3548 9.68131 44.3548C8.81599 44.3548 8.11281 43.6686 8.07568 42.8121L8.30874 41.8783ZM5.69584 43.9629L6.62731 43.7314C7.04743 45.0242 8.24906 45.9678 9.68131 45.9678C11.1127 45.9678 12.3144 45.025 12.7354 43.7323L13.6732 43.9677C14.7023 44.225 15.6201 44.7984 16.3305 45.5791C15.8249 46.421 15.4934 47.3734 15.3773 48.3879H1.67488C1.98939 46.2573 3.55471 44.4952 5.69584 43.9629ZM42.0289 48.3871C42.9434 47.0234 43.4563 45.4363 43.5321 43.7702L44.3184 43.9669C46.4555 44.5024 48.0168 46.2621 48.3329 48.3863H42.0289V48.3871Z"/>
</mask>
<path d="M46.9394 43.4016C47.8305 42.65 48.391 41.5355 48.391 40.3226V33.8709C48.391 31.2403 47.1192 28.9081 45.1652 27.4347V9.67744H32.262V3.22581H29.0362V1.61291H27.4232V3.22581H25.8104V0H24.1974V3.22581H22.5846V1.61291H20.9716V3.22581H17.7459V9.67744H4.84261V27.4347C2.88858 28.9081 1.61681 31.2403 1.61681 33.8709V44.7194C0.6031 45.9419 0.00390625 47.5056 0.00390625 49.1936V50H50.0023L50.0039 49.1944C50.0079 46.8177 48.8184 44.675 46.9394 43.4016ZM46.7781 33.8709V40.3226C46.7781 41.3145 46.1596 42.2 45.2531 42.5629C45.0757 42.5033 44.895 42.4484 44.7112 42.4024L43.4112 42.0774L43.2249 41.3339C44.3829 40.6242 45.1652 39.3581 45.1652 37.9032V33.0645H44.3587C43.1144 33.0645 41.9587 32.4459 41.2684 31.4105L41.1329 31.2072V29.0322H39.5201V31.2072L39.3846 31.4105C38.6942 32.4459 37.5386 33.0645 36.2942 33.0645H35.4877V37.9032C35.4877 39.3581 36.2701 40.6242 37.4281 41.3331L37.2418 42.0758L35.9507 42.3968C35.7627 42.4436 35.5781 42.4992 35.3958 42.5605C34.4926 42.1976 33.8749 41.3129 33.8749 40.3226V33.8709C33.8749 30.3137 36.7692 27.4194 40.3265 27.4194C43.8837 27.4194 46.7781 30.3137 46.7781 33.8709ZM31.4555 32.0597C31.4555 32.2678 31.4232 32.4702 31.3958 32.6742C30.9329 32.4169 30.4087 32.2581 29.8426 32.2581H29.0362H28.8974C27.6418 32.2581 26.4612 31.7694 25.5741 30.8814L25.0039 30.3105L24.4337 30.8814C23.5458 31.7694 22.366 32.2581 21.1104 32.2581H20.9716H20.1652C19.5991 32.2581 19.0749 32.4169 18.612 32.6742C18.5846 32.4702 18.5523 32.2678 18.5523 32.0597C18.5523 29.5008 20.6337 27.4194 23.1926 27.4194H26.8152C29.3741 27.4194 31.4555 29.5008 31.4555 32.0597ZM32.666 44.2774C31.7886 43.3879 30.6701 42.7242 29.3886 42.4032L28.0886 42.0783L27.9023 41.3347C28.841 40.7597 29.5346 39.8234 29.7612 38.7105H29.8426C30.8112 38.7105 31.6701 38.2734 32.262 37.5959V40.3226C32.262 41.5347 32.8224 42.6484 33.7127 43.4008C33.3362 43.6564 32.987 43.9516 32.666 44.2774ZM17.7459 43.8959V37.5952C18.3377 38.2726 19.1966 38.7097 20.1652 38.7097H20.2466C20.4732 39.8226 21.1668 40.7589 22.1055 41.3331L21.9192 42.0758L20.6281 42.3968C19.5329 42.6702 18.5563 43.1952 17.7459 43.8959ZM20.1652 37.0968C19.2757 37.0968 18.5523 36.3734 18.5523 35.4839C18.5523 34.5944 19.2757 33.8709 20.1652 33.8709V37.0968ZM25.8104 40.3226H24.1974C22.8636 40.3226 21.7781 39.2371 21.7781 37.9032V33.8363C22.9604 33.7129 24.0716 33.2621 25.0039 32.5283C25.9362 33.2621 27.0474 33.7121 28.2297 33.8363V37.9032C28.2297 39.2371 27.1442 40.3226 25.8104 40.3226ZM23.6313 41.8783C23.8184 41.9048 24.0039 41.9355 24.1974 41.9355H25.8104C26.0039 41.9355 26.1894 41.9048 26.3765 41.8783L26.5482 42.5645L25.0039 44.6234L23.4596 42.5645L23.6313 41.8783ZM29.8426 33.8709C30.7321 33.8709 31.4555 34.5944 31.4555 35.4839C31.4555 36.3734 30.7321 37.0968 29.8426 37.0968V33.8709ZM21.0184 43.9629L22.2604 43.6541L25.0039 47.3121L27.7466 43.6548L28.9958 43.9677C31.1321 44.5024 32.6854 46.2637 33.0015 48.3871H17.0063C17.3216 46.2589 18.8781 44.4944 21.0184 43.9629ZM33.6749 45.5758C34.3877 44.7936 35.3079 44.2194 36.3402 43.9621L37.1208 43.7677C37.1958 45.4347 37.7096 47.0217 38.6241 48.3863H34.6305C34.5152 47.3734 34.1837 46.4194 33.6749 45.5758ZM40.3265 32.8314C41.1563 33.7944 42.2991 34.4258 43.5523 34.6161V37.9032C43.5523 39.2371 42.4668 40.3226 41.1329 40.3226H39.5201C38.1862 40.3226 37.1007 39.2371 37.1007 37.9032V34.6161C38.3539 34.4258 39.4966 33.7944 40.3265 32.8314ZM39.5201 41.9355H41.1329C41.3265 41.9355 41.5119 41.9048 41.6991 41.8783L41.9394 42.8395V43.3524C41.9394 43.4186 41.9313 43.4822 41.9297 43.5484H38.7232C38.7216 43.4831 38.7136 43.4186 38.7136 43.3524V42.8403L38.9539 41.8783C39.141 41.9048 39.3265 41.9355 39.5201 41.9355ZM38.9426 45.1613H41.7104C41.4563 46.1855 40.9902 47.1428 40.3265 47.9774C39.6627 47.1428 39.1966 46.1855 38.9426 45.1613ZM43.5523 26.4847C42.5636 26.0508 41.4732 25.8064 40.3265 25.8064C37.0063 25.8064 34.1499 27.825 32.9144 30.6976C32.4547 28.6371 30.9757 26.9613 29.0362 26.2209V11.2903H43.5523V26.4847ZM27.4232 9.67744V25.8371C27.2232 25.8178 27.0208 25.8064 26.8152 25.8064H23.1926C21.7474 25.8064 20.4192 26.304 19.3587 27.1306V8.0645H30.6491V9.67744H27.4232ZM30.6491 4.83871V6.45163H19.3587V4.83871H30.6491ZM6.45549 11.2903H17.7459V28.9984C17.4499 29.5234 17.2281 30.0936 17.0934 30.6976C15.8579 27.8242 13.0015 25.8064 9.68131 25.8064C8.53456 25.8064 7.44424 26.0508 6.45549 26.4847V11.2903ZM9.68131 27.4194C13.2386 27.4194 16.1329 30.3137 16.1329 33.8709V43.3008C15.4991 42.8952 14.8031 42.5871 14.066 42.4024L12.766 42.0774L12.5797 41.3339C13.7377 40.6242 14.5201 39.3581 14.5201 37.9032V33.0645H11.7459C10.7232 33.0645 9.77487 32.5564 9.20793 31.7056C8.76437 31.0419 8.02324 30.6452 7.22487 30.6452C5.91116 30.6452 4.84261 31.7129 4.84261 33.0258V37.9032C4.84261 39.3581 5.62488 40.6242 6.78293 41.3331L6.59662 42.0758L5.30552 42.3968C4.5531 42.5847 3.85633 42.8919 3.22971 43.2911V33.8709C3.22971 30.3137 6.12406 27.4194 9.68131 27.4194ZM10.4877 40.3226H8.87487C7.54099 40.3226 6.45549 39.2371 6.45549 37.9032V33.0258C6.45549 32.6024 6.80068 32.2581 7.22487 32.2581C7.48212 32.2581 7.72162 32.3863 7.86518 32.6008C8.73131 33.9008 10.1821 34.6774 11.7459 34.6774H12.9071V37.9032C12.9071 39.2371 11.8216 40.3226 10.4877 40.3226ZM8.30874 41.8783C8.49587 41.9048 8.68131 41.9355 8.87487 41.9355H10.4877C10.6813 41.9355 10.8668 41.9048 11.0539 41.8783L11.2877 42.8113C11.2499 43.6686 10.5466 44.3548 9.68131 44.3548C8.81599 44.3548 8.11281 43.6686 8.07568 42.8121L8.30874 41.8783ZM5.69584 43.9629L6.62731 43.7314C7.04743 45.0242 8.24906 45.9678 9.68131 45.9678C11.1127 45.9678 12.3144 45.025 12.7354 43.7323L13.6732 43.9677C14.7023 44.225 15.6201 44.7984 16.3305 45.5791C15.8249 46.421 15.4934 47.3734 15.3773 48.3879H1.67488C1.98939 46.2573 3.55471 44.4952 5.69584 43.9629ZM42.0289 48.3871C42.9434 47.0234 43.4563 45.4363 43.5321 43.7702L44.3184 43.9669C46.4555 44.5024 48.0168 46.2621 48.3329 48.3863H42.0289V48.3871Z" fill="#2D333A" stroke="white" stroke-width="0.26" mask="url(#path-1-inside-1_329_875)"/>
<path d="M21.1627 10.2212H22.5952V11.6537H21.1627V10.2212Z" fill="#2D333A" stroke="white" stroke-width="0.13"/>
<path d="M24.2877 10.2212H25.7202V11.6537H24.2877V10.2212Z" fill="#2D333A" stroke="white" stroke-width="0.13"/>
<path d="M21.1627 13.3462H22.5952V14.7787H21.1627V13.3462Z" fill="#2D333A" stroke="white" stroke-width="0.13"/>
<path d="M24.2877 13.3462H25.7202V14.7787H24.2877V13.3462Z" fill="#2D333A" stroke="white" stroke-width="0.13"/>
<path d="M24.2877 16.4712H25.7202V17.9037H24.2877V16.4712Z" fill="#2D333A" stroke="white" stroke-width="0.13"/>
<path d="M21.1627 16.4712H22.5952V17.9037H21.1627V16.4712Z" fill="#2D333A" stroke="white" stroke-width="0.13"/>
<path d="M21.1627 19.5962H22.5952V21.0287H21.1627V19.5962Z" fill="#2D333A" stroke="white" stroke-width="0.13"/>
<path d="M24.2877 19.5962H25.7202V21.0287H24.2877V19.5962Z" fill="#2D333A" stroke="white" stroke-width="0.13"/>
<path d="M24.2877 22.7212H25.7202V24.1537H24.2877V22.7212Z" fill="#2D333A" stroke="white" stroke-width="0.13"/>
<path d="M21.1627 22.7212H22.5952V24.1537H21.1627V22.7212Z" fill="#2D333A" stroke="white" stroke-width="0.13"/>
<path d="M30.5377 13.3462H31.9702V14.7787H30.5377V13.3462Z" fill="#2D333A" stroke="white" stroke-width="0.13"/>
<path d="M30.5377 19.5962H31.9702V21.0287H30.5377V19.5962Z" fill="#2D333A" stroke="white" stroke-width="0.13"/>
<path d="M30.5377 16.4712H31.9702V17.9037H30.5377V16.4712Z" fill="#2D333A" stroke="white" stroke-width="0.13"/>
<path d="M30.5377 22.7212H31.9702V24.1537H30.5377V22.7212Z" fill="#2D333A" stroke="white" stroke-width="0.13"/>
<path d="M33.6627 13.3462H35.0952V14.7787H33.6627V13.3462Z" fill="#2D333A" stroke="white" stroke-width="0.13"/>
<path d="M33.6627 22.7212H35.0952V24.1537H33.6627V22.7212Z" fill="#2D333A" stroke="white" stroke-width="0.13"/>
<path d="M33.6627 19.5962H35.0952V21.0287H33.6627V19.5962Z" fill="#2D333A" stroke="white" stroke-width="0.13"/>
<path d="M33.6627 16.4712H35.0952V17.9037H33.6627V16.4712Z" fill="#2D333A" stroke="white" stroke-width="0.13"/>
<path d="M36.7877 13.3462H38.2202V14.7787H36.7877V13.3462Z" fill="#2D333A" stroke="white" stroke-width="0.13"/>
<path d="M36.7877 16.4712H38.2202V17.9037H36.7877V16.4712Z" fill="#2D333A" stroke="white" stroke-width="0.13"/>
<path d="M36.7877 19.5962H38.2202V21.0287H36.7877V19.5962Z" fill="#2D333A" stroke="white" stroke-width="0.13"/>
<path d="M36.7877 22.7212H38.2202V24.1537H36.7877V22.7212Z" fill="#2D333A" stroke="white" stroke-width="0.13"/>
<path d="M39.9127 13.3462H41.3452V14.7787H39.9127V13.3462Z" fill="#2D333A" stroke="white" stroke-width="0.13"/>
<path d="M39.9127 19.5962H41.3452V21.0287H39.9127V19.5962Z" fill="#2D333A" stroke="white" stroke-width="0.13"/>
<path d="M39.9127 16.4712H41.3452V17.9037H39.9127V16.4712Z" fill="#2D333A" stroke="white" stroke-width="0.13"/>
<path d="M39.9127 22.7212H41.3452V24.1537H39.9127V22.7212Z" fill="#2D333A" stroke="white" stroke-width="0.13"/>
<path d="M8.66266 22.7212H10.0952V24.1537H8.66266V22.7212Z" fill="#2D333A" stroke="white" stroke-width="0.13"/>
<path d="M8.66266 16.4712H10.0952V17.9037H8.66266V16.4712Z" fill="#2D333A" stroke="white" stroke-width="0.13"/>
<path d="M8.66266 13.3462H10.0952V14.7787H8.66266V13.3462Z" fill="#2D333A" stroke="white" stroke-width="0.13"/>
<path d="M8.66266 19.5962H10.0952V21.0287H8.66266V19.5962Z" fill="#2D333A" stroke="white" stroke-width="0.13"/>
<path d="M11.7877 22.7212H13.2202V24.1537H11.7877V22.7212Z" fill="#2D333A" stroke="white" stroke-width="0.13"/>
<path d="M11.7877 19.5962H13.2202V21.0287H11.7877V19.5962Z" fill="#2D333A" stroke="white" stroke-width="0.13"/>
<path d="M11.7877 16.4712H13.2202V17.9037H11.7877V16.4712Z" fill="#2D333A" stroke="white" stroke-width="0.13"/>
<path d="M11.7877 13.3462H13.2202V14.7787H11.7877V13.3462Z" fill="#2D333A" stroke="white" stroke-width="0.13"/>
<path d="M14.9127 19.5962H16.3452V21.0287H14.9127V19.5962Z" fill="#2D333A" stroke="white" stroke-width="0.13"/>
<path d="M14.9127 22.7212H16.3452V24.1537H14.9127V22.7212Z" fill="#2D333A" stroke="white" stroke-width="0.13"/>
<path d="M14.9127 16.4712H16.3452V17.9037H14.9127V16.4712Z" fill="#2D333A" stroke="white" stroke-width="0.13"/>
<path d="M14.9127 13.3462H16.3452V14.7787H14.9127V13.3462Z" fill="#2D333A" stroke="white" stroke-width="0.13"/>
</svg>
